<svg width="50" height="50" viewBox="0 0 50 50" fill="none" xmlns="http://www.w3.org/2000/svg">
<g clip-path="url(#clip0_51_1159)">
<path d="M41.7663 23.9959L38.6691 20.8988L26.3281 8.54454C26.1555 8.37186 25.9505 8.23489 25.7249 8.14143C25.4993 8.04798 25.2575 7.99988 25.0133 7.99988C24.7691 7.99988 24.5273 8.04798 24.3017 8.14143C24.0761 8.23489 23.8711 8.37186 23.6985 8.54454L11.3389 20.8908L8.23377 23.9959C8.09301 24.147 8.01638 24.3468 8.02002 24.5533C8.02366 24.7597 8.1073 24.9567 8.2533 25.1027C8.3993 25.2487 8.59627 25.3323 8.80271 25.3359C9.00916 25.3396 9.20896 25.263 9.36002 25.1222L11.1052 23.377V40.1406C11.1052 40.6338 11.3011 41.1067 11.6498 41.4554C11.9985 41.8041 12.4714 42 12.9646 42H20.2188C20.7119 42 21.1848 41.8041 21.5335 41.4554C21.8822 41.1067 22.0781 40.6338 22.0781 40.1406V29.5156C22.0781 29.4452 22.1061 29.3776 22.1559 29.3278C22.2058 29.278 22.2733 29.25 22.3438 29.25H27.6563C27.7267 29.25 27.7943 29.278 27.8441 29.3278C27.8939 29.3776 27.9219 29.4452 27.9219 29.5156V40.1406C27.9219 40.6338 28.1178 41.1067 28.4665 41.4554C28.8152 41.8041 29.2881 42 29.7813 42H37.0435C37.2876 42 37.5294 41.9519 37.755 41.8585C37.9806 41.765 38.1856 41.6281 38.3582 41.4554C38.5309 41.2828 38.6679 41.0778 38.7613 40.8522C38.8547 40.6266 38.9028 40.3848 38.9028 40.1406V23.385L40.64 25.1222C40.7911 25.263 40.9909 25.3396 41.1973 25.3359C41.4038 25.3323 41.6007 25.2487 41.7467 25.1027C41.8927 24.9567 41.9764 24.7597 41.98 24.5533C41.9837 24.3468 41.907 24.147 41.7663 23.9959ZM37.3091 40.1406C37.3091 40.2111 37.2811 40.2786 37.2313 40.3285C37.1815 40.3783 37.1139 40.4063 37.0435 40.4063H29.7813C29.7108 40.4063 29.6433 40.3783 29.5934 40.3285C29.5436 40.2786 29.5156 40.2111 29.5156 40.1406V29.5156C29.5156 29.0225 29.3197 28.5496 28.9711 28.2009C28.6223 27.8522 28.1494 27.6563 27.6563 27.6563H22.3438C21.8506 27.6563 21.3777 27.8522 21.029 28.2009C20.6803 28.5496 20.4844 29.0225 20.4844 29.5156V40.1406C20.4844 40.2111 20.4564 40.2786 20.4066 40.3285C20.3568 40.3783 20.2892 40.4063 20.2188 40.4063H12.9646C12.8941 40.4063 12.8265 40.3783 12.7767 40.3285C12.7269 40.2786 12.6989 40.2111 12.6989 40.1406V21.7859L24.8114 9.67079C24.8612 9.62132 24.9285 9.59355 24.9987 9.59355C25.0689 9.59355 25.1362 9.62132 25.186 9.67079L37.3064 21.7913L37.3091 40.1406Z" fill="currentColor"/>
</g>
<defs>
<clipPath id="clip0_51_1159">
<rect width="34" height="34" fill="currentColor" transform="translate(8 8)"/>
</clipPath>
</defs>
</svg>
