<svg width="50" height="50" viewBox="0 0 50 50" fill="none" xmlns="http://www.w3.org/2000/svg">
<path d="M25 24.2419C19.9858 24.2419 15.9064 20.1625 15.9064 15.1483C15.9064 10.1341 19.9858 6.05469 25 6.05469C30.0142 6.05469 34.0936 10.1341 34.0936 15.1483C34.0936 20.1625 30.0142 24.2419 25 24.2419ZM25 8.00781C21.0627 8.00781 17.8595 11.211 17.8595 15.1483C17.8595 19.0855 21.0627 22.2887 25 22.2887C28.9372 22.2887 32.1404 19.0855 32.1404 15.1483C32.1404 11.211 28.9372 8.00781 25 8.00781ZM36.4997 43.9453H13.5003C11.0195 43.9453 9.00122 41.927 9.00122 39.4463V36.6316C9.00122 30.7749 13.766 26.0102 19.6227 26.0102H30.3772C36.2339 26.0102 40.9986 30.7749 40.9986 36.6316V39.4463C40.9987 41.927 38.9804 43.9453 36.4997 43.9453ZM19.6227 27.9633C14.8429 27.9633 10.9543 31.8519 10.9543 36.6316V39.4463C10.9543 40.8501 12.0965 41.9922 13.5003 41.9922H36.4997C37.9035 41.9922 39.0456 40.8501 39.0456 39.4463V36.6316C39.0456 31.8519 35.157 27.9633 30.3772 27.9633H19.6227Z" fill="black"/>
</svg>
